<mxfile host="app.diagrams.net" agent="Mozilla/5.0 (Windows NT 10.0; Win64; x64) AppleWebKit/537.36 (KHTML, like Gecko) Chrome/135.0.0.0 Safari/537.36 Edg/135.0.0.0" version="26.2.14">
  <diagram name="Página-1" id="lOxBb2NLzGRnFK0XHkI4">
    <mxGraphModel dx="1418" dy="786" grid="1" gridSize="10" guides="1" tooltips="1" connect="1" arrows="1" fold="1" page="1" pageScale="1" pageWidth="827" pageHeight="1169" math="0" shadow="0">
      <root>
        <mxCell id="0" />
        <mxCell id="1" parent="0" />
        <mxCell id="QurSOyljTEDaVtgIXI97-14" style="edgeStyle=orthogonalEdgeStyle;rounded=0;orthogonalLoop=1;jettySize=auto;html=1;exitX=0.5;exitY=1;exitDx=0;exitDy=0;exitPerimeter=0;entryX=0.5;entryY=0;entryDx=0;entryDy=0;" edge="1" parent="1" source="QurSOyljTEDaVtgIXI97-1" target="QurSOyljTEDaVtgIXI97-3">
          <mxGeometry relative="1" as="geometry" />
        </mxCell>
        <mxCell id="QurSOyljTEDaVtgIXI97-1" value="INICIO" style="strokeWidth=2;html=1;shape=mxgraph.flowchart.start_2;whiteSpace=wrap;" vertex="1" parent="1">
          <mxGeometry x="441" y="300" width="100" height="100" as="geometry" />
        </mxCell>
        <mxCell id="QurSOyljTEDaVtgIXI97-3" value="VALOR 20 E 90" style="shape=document;whiteSpace=wrap;html=1;boundedLbl=1;" vertex="1" parent="1">
          <mxGeometry x="431" y="430" width="120" height="80" as="geometry" />
        </mxCell>
        <mxCell id="QurSOyljTEDaVtgIXI97-10" style="edgeStyle=orthogonalEdgeStyle;rounded=0;orthogonalLoop=1;jettySize=auto;html=1;exitX=0.5;exitY=0;exitDx=0;exitDy=0;exitPerimeter=0;entryX=0.5;entryY=1;entryDx=0;entryDy=0;" edge="1" parent="1" source="QurSOyljTEDaVtgIXI97-4" target="QurSOyljTEDaVtgIXI97-9">
          <mxGeometry relative="1" as="geometry" />
        </mxCell>
        <mxCell id="QurSOyljTEDaVtgIXI97-13" style="edgeStyle=orthogonalEdgeStyle;rounded=0;orthogonalLoop=1;jettySize=auto;html=1;exitX=0.5;exitY=1;exitDx=0;exitDy=0;exitPerimeter=0;entryX=0.5;entryY=0;entryDx=0;entryDy=0;" edge="1" parent="1" source="QurSOyljTEDaVtgIXI97-4" target="QurSOyljTEDaVtgIXI97-12">
          <mxGeometry relative="1" as="geometry" />
        </mxCell>
        <mxCell id="QurSOyljTEDaVtgIXI97-4" value="Faixa permitida?" style="strokeWidth=2;html=1;shape=mxgraph.flowchart.decision;whiteSpace=wrap;" vertex="1" parent="1">
          <mxGeometry x="277" y="420" width="100" height="100" as="geometry" />
        </mxCell>
        <mxCell id="QurSOyljTEDaVtgIXI97-5" style="edgeStyle=orthogonalEdgeStyle;rounded=0;orthogonalLoop=1;jettySize=auto;html=1;exitX=0;exitY=0.5;exitDx=0;exitDy=0;entryX=1;entryY=0.5;entryDx=0;entryDy=0;entryPerimeter=0;" edge="1" parent="1" source="QurSOyljTEDaVtgIXI97-3" target="QurSOyljTEDaVtgIXI97-4">
          <mxGeometry relative="1" as="geometry" />
        </mxCell>
        <mxCell id="QurSOyljTEDaVtgIXI97-7" value="sim" style="text;html=1;align=center;verticalAlign=middle;resizable=0;points=[];autosize=1;strokeColor=none;fillColor=none;" vertex="1" parent="1">
          <mxGeometry x="347" y="410" width="40" height="30" as="geometry" />
        </mxCell>
        <mxCell id="QurSOyljTEDaVtgIXI97-8" value="nao" style="text;html=1;align=center;verticalAlign=middle;resizable=0;points=[];autosize=1;strokeColor=none;fillColor=none;" vertex="1" parent="1">
          <mxGeometry x="347" y="500" width="40" height="30" as="geometry" />
        </mxCell>
        <mxCell id="QurSOyljTEDaVtgIXI97-9" value="&quot;Valor está na faixa permitida&quot;" style="rounded=1;whiteSpace=wrap;html=1;absoluteArcSize=1;arcSize=14;strokeWidth=2;" vertex="1" parent="1">
          <mxGeometry x="277" y="290" width="100" height="100" as="geometry" />
        </mxCell>
        <mxCell id="QurSOyljTEDaVtgIXI97-12" value="&quot;Valor nao esta na faixa permitida&quot;" style="rounded=1;whiteSpace=wrap;html=1;absoluteArcSize=1;arcSize=14;strokeWidth=2;" vertex="1" parent="1">
          <mxGeometry x="277" y="570" width="100" height="100" as="geometry" />
        </mxCell>
      </root>
    </mxGraphModel>
  </diagram>
</mxfile>
